<?xml version="1.0" standalone="no"?><!DOCTYPE svg PUBLIC "-//W3C//DTD SVG 1.1//EN" "http://www.w3.org/Graphics/SVG/1.1/DTD/svg11.dtd"><svg t="1757484119686" class="icon" viewBox="0 0 1024 1024" version="1.1" xmlns="http://www.w3.org/2000/svg" p-id="13259" xmlns:xlink="http://www.w3.org/1999/xlink" width="200" height="200"><path d="M1004.16453928 758.51528801l-1e-8 8.23316599c0 16.55354701-0.313977 33.141981 0.45352101 49.625756-17.757125-0.139545-35.514249-0.104659-53.236487-1e-8 0.313977 39.456401-0.174431 78.982574 0.174431 118.47386102 10.326344-0.209318 20.652687-0.174431 30.99647398-1e-8 0 8.04129101-0.122102 16.117469 2e-8 24.141317l-17.23383-0.156989c0.104659 5.634137 0.209318 11.25083 0.27909 16.867524-7.727315 0-15.472072 0-23.181943 0.17443199-0.104659-11.931113-0.139545-23.86222599 0.10465898-35.81078299-39.909922 0.383749-79.819845-0.104659-119.72976798 0-0.104659 20.582915-0.244204 41.1135 0.104659 61.64408499-108.426608 0-216.853215-0.27909-325.227493 0.20931801 0.139545 7.308679 0.19187499 14.756903 0.470965 22.065582q174.10006-0.383749 348.339664-0.174432c0.174431-20.077063-0.209318-40.11924 0.139545-60.213746 22.88541001 0.244204 45.805706 0.24420399 68.691117 0.139545l0 38.183051-19.187463-0.279091 0.732612-18.576952c-8.12850701-0.418636-16.274457-0.627953-24.42040702-0.558181 0.209318 13.780087 0.296534 27.560174 0.52329502 41.375147 23.12961401 0 46.276671-0.313977 69.38884201 0 0-6.977259 0.10465899-13.954518 0.13954499-20.931778l23.024956 0c0 6.890043 0 13.83241599-0.139546 20.739903l62.934878 0c0.139545-21.61206001 0-43.224121 0.139545-64.836181l-24.158759 0c0.104659-8.058734 0.139545-16.13491199 0.174431-24.245975l24.001772 1e-8c0.10465899-22.676092-0.27909-45.561502 0.20931698-68.32481101-10.81475201 0-21.66439 0-32.47914098-0.10465899q-0.313977 14.722017 0.27909 29.42659099l11.791568-0.453522-0.104659 15.69883299L977.00555728 910.846299c0.104659-22.955183 0.244204-45.910365 0-68.830661l51.631718 0q-0.348863-26.04262-0.226761-52.015468l0.191875 0 0-31.39766599c-0.174431-122.817205-0.191875-552.145405 0.122102-576.60069801-17.181501 0.104659-34.415331 0-51.631718 0 0.244204-22.920296 0.104659-45.858036 0-68.830662l31.153462-1e-8c0 5.232944 0 10.465889 0.10465901 15.69883301l-11.79156801-0.453522q-0.575624 14.687131-0.27909 29.426591c10.814752-0.139545 21.66439-0.174431 32.479141-0.10465901-0.48840799-22.676092-0.10465899-45.561502-0.209318-68.32481099q-12.018329-0.15698799-24.001771 0c0-8.111064 0-16.187241-0.174432-24.245975l24.21109 0c-0.139545-21.629503 0-43.241564-0.139546-64.853624l-62.934877 0c0 6.977259 0.104659 13.849859 0.139545 20.739903l-23.164501 0c0-6.977259 0-13.95451801-0.13954499-20.931778-23.112171 0.366306-46.259228 0.122102-69.38884201 0-0.226761 13.814973-0.313977 27.612503-0.52329502 41.375147 8.14595 0.087216 16.2919-0.139545 24.42040702-0.54073801l-0.732612-18.59439499 19.187463-0.279091 0 38.130722c-22.88541-0.104659-45.805706-0.104659-68.691117 0.139545-0.348863-20.042177 0-40.11924-0.139545-60.213747Q672.32609228 0.296534 498.19114628 0.139545C497.89461328 7.448224 497.75506728 15.001107 497.61552228 22.309786c108.339392 0.488408 216.818329 0 325.244937 0-0.348863 20.530585-0.209318 41.06117-0.104659 61.644085 39.909922 0.139545 79.819845-0.348863 119.729767 0-0.244204-11.948556-0.209318-23.87967-0.104658-35.810783 7.709871 0.139545 15.454629 0.174431 23.181943 0.174432 0 5.61669401-0.174431 11.233387-0.27909 16.884967l17.23383-0.174431 0 24.141316c-10.34378701 0.139545-20.67013 0.174431-30.996474 0-0.348863 39.491287 0.139545 79.01746-0.174431 118.47386099l53.236487 1e-8c-0.697726 16.536104-0.418636 431.54348-0.418635 550.87205501z m4.08169599-712.09907101c-8.337825 0.244204-16.710536 0-25.06580299-0.38375q0.418636-11.948556 0.27909-23.914555c8.250609 0 16.55354701 0.104659 24.821599 0-0.034886 8.14595-0.06977301 16.222128-0.03488601 24.298305z m1e-8 930.871033l-1e-8 24.228532-24.82159901 0q0.156988-11.948556-0.27909098-23.914556c8.390154-0.383749 16.76286499-0.558181 25.10069-0.313976z" fill="#EF5350" p-id="13260"></path></svg>